# xmcd
#
# Track frame offsets:
# 225
# 12193
# 25480
# 38025
# 48286
# 61205
# 71339
# 83621
# 95860
# 104650
# 126241
# 136586
# 148554
# 159396
# 175298
# 187485
#
# Disc length: 2628 seconds
#
#
# Revision: 1
# Processed by: cddbd v1.5.1PL0 Copyright (c) Steve Scherf et al.
# Submitted via: FreeRIP 2.70 
#
DISCID=de0a4110
DTITLE=Various Artist - Country - The Best of Country 3, 48 everlasting country top hits [CD2)
DYEAR=1996
DGENRE=Country
TTITLE0=Patsy Cline - Just out of reach
TTITLE1=John Denver - Rocky Mountain high
TTITLE2=Don Williams - Coming apart
TTITLE3=Willie Nelson - On the road again
TTITLE4=Faron Young - Apartment nr.9
TTITLE5=Johnny Russell - Today I started loving you again
TTITLE6=Del Shannon - She thinks I still care
TTITLE7=Jim Reeves - Four walls
TTITLE8=Loretta Lynn - We've come a long way baby
TTITLE9=John Denver - Eagles and horses
TTITLE10=Johnny Paycheck - A 11
TTITLE11=Skeeter Davis - End of the world
TTITLE12=Charley Pride - Oklahoma morning
TTITLE13=Brenda Lee - You're the one that I want
TTITLE14=Johnny Dollar - Big, big rollin' man
TTITLE15=Stonewall Jackson - Shake 'em up and roll 'em
EXTD=(CD-2)
EXTT0=
EXTT1=
EXTT2=
EXTT3=
EXTT4=
EXTT5=
EXTT6=
EXTT7=
EXTT8=
EXTT9=
EXTT10=
EXTT11=
EXTT12=
EXTT13=
EXTT14=
EXTT15=
PLAYORDER=
